<?xml version="1.0" encoding="UTF-8"?>
<svg version="1.1" xmlns="http://www.w3.org/2000/svg" width="434" height="480">
<path d="M0 0 C143.22 0 286.44 0 434 0 C434 158.4 434 316.8 434 480 C290.78 480 147.56 480 0 480 C0 321.6 0 163.2 0 0 Z " fill="#F2F2F2" transform="translate(0,0)"/>
<path d="M0 0 C4.84886637 2.72025262 7.40524302 5.59112474 10.375 10.25 C20.86390621 26.08172735 36.60664302 36.48645725 55.1652832 40.55151367 C74.00651974 44.1477946 94.26824377 41.31351586 110.71923828 30.91308594 C120.87851824 24.00581252 129.24954738 15.43993812 135.61328125 4.91015625 C137.69374538 2.04439017 139.28117785 0.34299971 142.86572266 -0.37231445 C149.92747084 -0.86071916 155.1432454 2.0382934 161.1875 5.375 C162.20126709 5.9215625 163.21503418 6.468125 164.25952148 7.03125 C177.30432774 14.1899217 188.37796611 22.91517689 199.51269531 32.71948242 C200.87934702 33.89612199 202.2914765 35.01939054 203.70703125 36.13671875 C207.27422737 39.03544541 210.03313249 42.50494017 213 46 C214.2065625 47.35738281 214.2065625 47.35738281 215.4375 48.7421875 C232.44624342 68.03493517 245.25584595 90.27710683 255 114 C255.45802002 115.09852295 255.45802002 115.09852295 255.92529297 116.21923828 C263.3212546 134.18988504 268.0755076 153.65510237 270 173 C270.10957031 174.10085938 270.21914063 175.20171875 270.33203125 176.3359375 C270.94024279 183.2938775 271 189.95826284 271 197 C139 197 7 197 -129 197 C-129 186.73073828 -128.88579962 177.44591283 -127.375 167.4375 C-127.19751221 166.2400415 -127.02002441 165.04258301 -126.8371582 163.80883789 C-119.78461821 118.66001483 -99.49519395 76.18155079 -68 43 C-67.51225098 42.47970215 -67.02450195 41.9594043 -66.52197266 41.42333984 C-53.42211129 27.53003322 -38.7230999 16.20664778 -22 7 C-21.06897461 6.47720459 -21.06897461 6.47720459 -20.11914062 5.94384766 C-6.98014637 -1.37110018 -6.98014637 -1.37110018 0 0 Z " fill="#BBBFC2" transform="translate(146,283)"/>
<path d="M0 0 C1.12277344 0.37382813 2.24554688 0.74765625 3.40234375 1.1328125 C15.61570503 5.51858552 26.15618019 11.58046914 36 20 C37.010625 20.763125 38.02125 21.52625 39.0625 22.3125 C53.35675728 35.39022475 63.24317366 53.35594605 68 72 C68.17587646 72.64018066 68.35175293 73.28036133 68.53295898 73.93994141 C74.32802196 96.79319917 69.73632101 124.17417169 58.05883789 144.55224609 C52.96222522 153.02505619 47.0515074 160.08504934 40 167 C39.12988281 167.85722656 38.25976562 168.71445313 37.36328125 169.59765625 C31.99509373 174.64560652 26.48401905 178.52831133 20 182 C19.43571289 182.31855957 18.87142578 182.63711914 18.29003906 182.96533203 C-5.28792085 196.23963609 -31.90722264 197.82591337 -57.77734375 191.00390625 C-80.45093438 184.12807446 -100.3282419 169.03161761 -113 149 C-113.51046875 148.23429688 -114.0209375 147.46859375 -114.546875 146.6796875 C-124.57593286 131.01574662 -128.59222942 113.72223526 -128.5 95.25 C-128.49572998 93.9417627 -128.49145996 92.63352539 -128.48706055 91.28564453 C-128.30325447 80.77817228 -126.7386263 71.78032902 -123 62 C-122.61585937 60.91332031 -122.23171875 59.82664063 -121.8359375 58.70703125 C-111.99737131 32.83896436 -91.70001369 14.16306621 -66.9765625 2.85302734 C-46.32595191 -6.05918034 -21.26227553 -7.26956012 0 0 Z " fill="#BABEC1" transform="translate(246,84)"/>
<path d="M0 0 C5.0192764 1.54513098 8.41704336 4.5635772 12.3125 7.9375 C13.28026367 8.74477539 13.28026367 8.74477539 14.26757812 9.56835938 C14.87666016 10.09107422 15.48574219 10.61378906 16.11328125 11.15234375 C16.66798096 11.62663818 17.22268066 12.10093262 17.79418945 12.58959961 C19 14 19 14 19 17 C18.25234375 16.278125 17.5046875 15.55625 16.734375 14.8125 C15.74007372 13.87447992 14.74525479 12.93700833 13.75 12 C13.25886719 11.52304687 12.76773437 11.04609375 12.26171875 10.5546875 C9.17714269 7.67574985 8.39802077 7 4 7 C3.896875 6.401875 3.79375 5.80375 3.6875 5.1875 C2.91123545 2.71756736 1.92911079 1.67748765 0 0 Z " fill="#B4B8BA" transform="translate(328,303)"/>
<path d="M0 0 C0 3.99711412 -1.32141544 5.1042329 -4 8 C-6.99506543 10.11846092 -8.30650564 11 -12 11 C-10.75323147 9.72599623 -9.5024352 8.45593346 -8.25 7.1875 C-7.55390625 6.47980469 -6.8578125 5.77210938 -6.140625 5.04296875 C-4.18571355 3.17724121 -2.19661447 1.56830358 0 0 Z " fill="#B5B8BB" transform="translate(96,309)"/>
<path d="M0 0 C0.48210937 0.3609375 0.96421875 0.721875 1.4609375 1.09375 C2.09257812 1.5578125 2.72421875 2.021875 3.375 2.5 C4.00148437 2.9640625 4.62796875 3.428125 5.2734375 3.90625 C6.94094613 5.17838101 6.94094613 5.17838101 9 5 C9.33 5.99 9.66 6.98 10 8 C9.34 8.66 8.68 9.32 8 10 C6.66070495 8.71451591 5.32871357 7.42141845 4 6.125 C2.88625 5.04605469 2.88625 5.04605469 1.75 3.9453125 C0 2 0 2 0 0 Z " fill="#B5B6B7" transform="translate(141,242)"/>
<path d="M0 0 C0.33 1.32 0.66 2.64 1 4 C0.2575 4.433125 -0.485 4.86625 -1.25 5.3125 C-3.61833926 6.76579909 -5.80924065 8.29607606 -8 10 C-6.34908222 5.70761377 -3.26245434 3.1206085 0 0 Z " fill="#B2B6B9" transform="translate(274,299)"/>
<path d="M0 0 C1.13199353 0.9080162 2.25532363 1.82683826 3.375 2.75 C4.00148437 3.26046875 4.62796875 3.7709375 5.2734375 4.296875 C7.08312318 6.08199481 8.00117455 7.67949644 9 10 C5.75161077 8.91720359 4.95717417 8.10963155 2.8125 5.5625 C2.01779297 4.63630859 2.01779297 4.63630859 1.20703125 3.69140625 C0 2 0 2 0 0 Z " fill="#B4B7B8" transform="translate(158,298)"/>
<path d="M0 0 C4.43090471 1.20842856 6.98112756 2.51668565 10 6 C5.56909529 4.79157144 3.01887244 3.48331435 0 0 Z " fill="#B5B7B9" transform="translate(306,289)"/>
<path d="M0 0 C3.36720387 1.39332574 4.9859524 2.9789286 7 6 C6.67 6.66 6.34 7.32 6 8 C4.99403703 7.0479279 3.99538437 6.08812654 3 5.125 C2.443125 4.59132813 1.88625 4.05765625 1.3125 3.5078125 C0 2 0 2 0 0 Z " fill="#F7F8F9" transform="translate(355,324)"/>
</svg>
